<?xml version="1.0" standalone="no"?>
<!DOCTYPE svg PUBLIC "-//W3C//DTD SVG 20010904//EN"
 "http://www.w3.org/TR/2001/REC-SVG-20010904/DTD/svg10.dtd">
<svg version="1.0" xmlns="http://www.w3.org/2000/svg"
 width="500.000000pt" height="500.000000pt" viewBox="0 0 500.000000 500.000000"
 preserveAspectRatio="xMidYMid meet">

<g transform="translate(0.000000,500.000000) scale(0.100000,-0.100000)"
fill="#000000" stroke="none">
<path d="M2650 4756 l0 -244 33 -11 c17 -5 61 -13 97 -16 67 -7 264 -53 360
-84 280 -92 562 -269 780 -490 53 -53 111 -116 130 -141 19 -25 37 -47 40 -50
31 -28 220 -336 220 -359 0 -3 9 -23 20 -44 30 -55 107 -286 125 -374 62 -298
59 -632 -6 -911 -79 -342 -256 -664 -504 -921 -252 -261 -535 -432 -905 -546
-41 -13 -158 -35 -328 -64 -35 -5 -71 -8 -80 -5 -14 5 -15 4 -2 -5 13 -9 12
-11 -5 -11 -17 -1 -16 -3 5 -11 14 -6 52 -9 85 -6 33 2 47 2 31 0 -20 -3 -25
-7 -17 -12 7 -5 -11 -7 -41 -5 -29 1 -43 0 -30 -2 12 -3 22 -10 22 -16 0 -5
-7 -8 -15 -4 -9 3 -15 0 -15 -9 0 -8 7 -15 15 -15 8 0 15 -4 15 -10 0 -5 -7
-10 -15 -10 -13 0 -15 -28 -15 -190 l0 -190 1175 0 1175 0 0 2500 0 2500
-1175 0 -1175 0 0 -244z m177 -252 c-3 -3 -12 -4 -19 -1 -8 3 -5 6 6 6 11 1
17 -2 13 -5z m-58 -4018 c-2 -2 -33 -6 -69 -9 -39 -3 -55 -2 -40 3 25 8 117
13 109 6z"/>
<path d="M1615 4204 c-102 -51 -157 -87 -112 -71 11 4 16 3 12 -4 -4 -5 -15
-7 -24 -4 -10 3 -24 -1 -31 -10 -7 -8 -17 -15 -23 -15 -18 0 -157 -111 -154
-123 1 -7 -5 -11 -14 -9 -9 1 -24 -7 -34 -18 -20 -22 -8 -28 15 -7 12 10 12 9
0 -6 -7 -10 -20 -15 -28 -12 -19 7 -196 -171 -188 -190 5 -13 -47 -95 -60 -95
-3 0 8 19 25 42 17 23 29 44 26 46 -3 3 -7 3 -8 1 -2 -2 -27 -35 -56 -74 -29
-38 -59 -79 -68 -89 -9 -11 -17 -33 -18 -50 -2 -17 -4 -33 -5 -36 -1 -3 -3 -9
-4 -15 -3 -22 -25 -49 -33 -41 -4 5 -2 11 5 13 6 3 12 12 12 22 0 9 5 22 12
29 6 6 9 14 6 17 -3 3 -20 -21 -39 -52 -52 -87 -62 -110 -54 -124 5 -7 4 -10
-2 -6 -26 16 -149 -342 -168 -487 -1 -12 -6 -34 -10 -50 -6 -23 -5 -27 6 -21
12 7 12 6 1 -7 -16 -20 -19 -69 -9 -120 7 -32 5 -37 -8 -32 -13 5 -15 -6 -15
-71 0 -49 4 -74 10 -70 6 4 8 33 6 73 -4 46 -3 58 3 37 l9 -30 1 27 c0 14 5
28 11 30 11 3 17 94 7 105 -4 3 -7 -14 -8 -38 l-1 -44 -8 34 c-8 33 4 81 20
81 4 0 6 30 4 68 -2 45 0 62 6 52 6 -10 10 -11 10 -2 0 6 5 12 10 12 6 0 10
-9 10 -21 0 -11 -4 -18 -9 -15 -10 7 -21 -17 -21 -45 0 -23 16 -25 24 -3 6 15
8 15 26 -1 24 -22 16 -39 -15 -31 -20 5 -24 1 -30 -24 -4 -16 -1 -46 5 -65 6
-19 9 -43 7 -52 -3 -13 -5 -11 -7 7 -2 24 -2 24 -12 -5 -5 -16 -11 -100 -13
-185 -2 -87 0 -142 5 -125 6 23 8 25 9 8 0 -12 4 -30 8 -40 3 -10 3 -15 -2
-11 -4 4 -14 3 -22 -3 -10 -9 -13 -5 -13 22 0 19 -3 45 -7 58 -4 16 -2 22 4
18 8 -5 8 5 2 31 -5 20 -9 40 -9 45 0 4 -5 7 -11 7 -7 0 -9 -10 -5 -27 4 -16
9 -68 12 -118 4 -49 10 -98 15 -107 5 -9 9 -32 10 -50 1 -18 4 -44 8 -58 7
-24 8 -24 12 7 3 18 2 30 -3 27 -4 -3 -8 15 -8 40 0 24 -4 46 -10 48 -6 2 -6
8 0 18 8 12 10 12 11 -5 1 -14 4 -11 10 10 5 21 6 15 2 -23 -3 -32 -1 -58 6
-66 12 -14 11 -86 -2 -86 -11 0 3 -79 23 -125 l17 -40 7 38 c4 20 11 37 17 37
6 0 7 -5 4 -11 -4 -6 -2 -31 5 -55 10 -34 10 -48 1 -57 -8 -8 -11 -8 -11 0 0
6 -3 19 -7 29 -4 11 -3 15 4 11 7 -5 9 1 5 15 -5 21 -5 21 -13 1 -4 -12 -1
-42 8 -73 13 -46 17 -51 38 -46 20 5 24 1 34 -39 15 -62 13 -67 -9 -17 -11 23
-24 42 -30 42 -7 0 -8 -6 -2 -17 5 -10 20 -40 32 -68 36 -82 103 -194 112
-189 4 3 5 -1 3 -8 -6 -15 79 -138 95 -138 6 0 10 -5 10 -11 0 -6 14 -31 32
-55 25 -35 36 -43 52 -38 17 4 18 3 6 -5 -12 -9 -1 -24 65 -88 191 -186 367
-308 571 -396 60 -27 116 -52 124 -56 34 -18 271 -82 360 -96 157 -26 374 -30
530 -11 86 12 138 23 145 32 5 7 28 17 50 22 l40 8 -42 7 c-24 4 -43 12 -43
17 0 13 17 13 25 1 3 -6 23 -9 45 -8 27 1 35 4 25 10 -8 4 -23 7 -32 5 -15 -2
-19 5 -21 40 -3 34 -7 42 -23 42 -16 0 -19 7 -19 40 0 22 -4 40 -10 40 -5 0
-10 18 -10 40 0 22 -4 40 -10 40 -5 0 -10 18 -10 40 0 37 -7 45 -32 41 -5 0
-8 17 -8 39 0 33 -3 40 -19 40 -16 0 -21 8 -24 43 l-4 42 -1 -42 c-2 -54 -22
-57 -22 -3 0 22 -4 40 -10 40 -5 0 -10 18 -10 40 0 30 -4 40 -16 40 -11 0 -7
11 17 45 17 24 36 42 42 38 6 -3 7 -1 3 6 -9 14 -20 8 -63 -40 -40 -44 -67
-49 -84 -17 -13 24 -16 204 -5 255 5 20 4 33 -2 33 -6 0 -12 -8 -14 -18 -2 -9
-2 35 -1 98 2 71 0 107 -6 95 -4 -11 -7 -47 -5 -80 3 -44 1 -53 -5 -35 -5 14
-9 42 -10 63 -1 20 -5 37 -11 37 -5 0 -10 18 -10 40 0 36 -3 40 -24 40 -23 0
-24 4 -31 80 -6 69 -10 80 -26 80 -15 0 -19 7 -19 40 0 25 -5 40 -12 40 -7 0
-19 4 -27 9 -12 8 -12 12 -2 25 18 21 3 20 -21 -1 -10 -9 -21 -14 -24 -11 -8
8 77 74 111 86 17 6 23 11 15 11 -30 1 -103 -40 -135 -76 -35 -39 -76 -121
-146 -288 -76 -184 -97 -225 -114 -225 -29 0 -55 20 -73 58 -10 20 -39 74 -64
119 -44 78 -67 125 -122 244 -25 56 -42 98 -105 269 -18 47 -38 99 -46 117
-19 40 -19 78 1 97 43 43 229 118 389 158 75 18 99 22 150 27 l20 2 -20 8
c-11 5 -24 6 -29 3 -5 -3 -22 -6 -37 -7 -25 -2 -26 -1 -14 12 8 8 15 23 15 34
0 13 4 18 13 13 6 -4 3 2 -7 14 -18 21 -53 32 -41 13 3 -5 0 -13 -6 -17 -6 -3
-14 -1 -18 5 -7 10 -92 -11 -201 -50 -40 -15 -193 -89 -200 -98 -3 -3 -22 -17
-42 -31 -20 -13 -34 -29 -31 -34 3 -5 1 -6 -4 -3 -13 8 -91 -54 -132 -107 -42
-53 -39 -21 3 39 19 27 32 53 29 58 -3 6 -1 7 4 4 6 -4 26 16 44 44 l32 51
-16 91 c-32 178 -37 225 -37 384 0 176 10 228 56 295 44 63 102 91 201 96 l83
5 0 38 c0 28 -4 39 -15 39 -11 0 -15 11 -15 40 0 29 -4 40 -15 40 -11 0 -15
12 -15 44 0 25 5 48 10 51 6 3 10 10 10 16 0 5 -4 9 -10 9 -5 0 -10 -6 -10
-12 0 -22 -17 -41 -29 -33 -9 5 -7 11 6 21 24 18 5 17 -27 -1 -14 -8 -34 -14
-45 -14 -16 1 -15 2 5 9 14 4 19 8 13 9 -7 1 -40 14 -74 31 -34 16 -65 27 -69
25 -5 -3 -10 -1 -12 4 -1 6 -20 17 -42 26 l-38 16 19 -28 c31 -43 83 -141 83
-154 0 -12 -28 -38 -42 -39 -5 0 -70 98 -113 171 -5 10 -22 39 -37 65 -35 58
-35 68 -2 83 22 10 36 7 107 -25 45 -20 98 -43 117 -51 19 -9 38 -17 42 -20 4
-2 -17 36 -47 85 -58 94 -64 112 -40 112 8 0 15 5 15 10 0 6 8 10 18 10 11 0
27 -18 42 -47 14 -26 33 -56 43 -67 9 -11 17 -24 17 -29 0 -5 12 -28 28 -51
15 -22 33 -53 41 -68 8 -16 16 -26 19 -23 2 2 -5 20 -16 39 l-21 35 22 4 c18
3 17 5 -10 12 -18 4 -33 12 -33 17 0 5 -18 37 -40 70 -26 40 -38 69 -35 83 3
11 2 14 -1 7 -5 -10 -9 -9 -20 5 -18 24 -18 38 1 23 12 -10 15 -10 15 3 0 23
-32 31 -47 11 -7 -10 -16 -15 -19 -11 -4 3 1 13 10 22 9 9 16 28 15 43 0 15
-3 20 -6 12 -2 -8 -7 -21 -9 -29 -3 -10 -8 -11 -16 -3 -7 7 -7 19 3 42 10 23
31 39 77 62 59 29 72 38 55 38 -5 0 -57 -25 -118 -56z m-31 -49 c-10 -8 -23
-14 -29 -14 -5 -1 1 8 15 19 14 10 27 17 29 14 3 -2 -4 -11 -15 -19z m-19
-155 c3 -5 1 -10 -4 -10 -6 0 -11 5 -11 10 0 6 2 10 4 10 3 0 8 -4 11 -10z
m-28 -57 c-10 -3 -14 -9 -10 -16 4 -7 -2 -5 -13 3 -10 8 -20 15 -22 16 -1 0
12 1 30 1 18 0 25 -2 15 -4z m73 -15 c0 -7 10 -22 22 -35 12 -13 16 -23 10
-23 -6 0 -16 9 -22 21 -7 13 -17 18 -27 15 -13 -5 -14 -4 -4 8 7 8 9 21 5 27
-4 8 -3 9 4 5 7 -4 12 -12 12 -18z m-452 -82 c-13 -13 -25 -22 -27 -20 -6 5
30 44 41 44 5 0 -2 -11 -14 -24z m-38 -30 c0 -2 -8 -10 -17 -17 -16 -13 -17
-12 -4 4 13 16 21 21 21 13z m74 -11 c-4 -8 -11 -15 -16 -15 -6 0 -5 6 2 15 7
8 14 15 16 15 2 0 1 -7 -2 -15z m85 -14 c30 -28 31 -30 11 -36 -14 -4 -19 -12
-16 -21 3 -9 1 -12 -4 -9 -6 4 -29 -12 -52 -34 l-41 -41 23 -25 24 -25 32 31
c18 17 31 36 30 43 -2 6 -1 8 1 3 3 -4 10 -4 16 0 7 4 21 8 32 8 36 1 28 -45
-15 -91 -21 -23 -41 -39 -44 -36 -3 3 -6 3 -6 0 0 -3 12 -18 26 -33 l25 -27
20 21 c11 12 17 26 13 33 -4 7 -3 8 5 4 7 -5 25 5 43 23 18 17 35 31 38 31 4
0 16 -10 28 -23 l22 -23 -79 -77 c-43 -42 -84 -77 -92 -77 -8 0 -50 36 -93 81
-60 60 -81 77 -89 67 -6 -9 -7 -7 -3 6 5 14 -2 28 -24 47 -37 34 -38 53 -5 75
14 9 22 21 18 27 -3 5 -2 7 4 4 5 -3 34 18 63 48 30 30 55 55 56 55 1 0 16
-13 33 -29z m-129 -36 c-25 -26 -40 -32 -40 -14 0 5 4 8 9 5 4 -3 16 3 26 14
10 11 20 20 23 20 3 0 -5 -11 -18 -25z m465 7 c-3 -3 -11 0 -18 7 -9 10 -8 11
6 5 10 -3 15 -9 12 -12z m70 -22 c2 -4 -7 -5 -20 -2 -14 2 -27 8 -30 12 -2 4
7 5 20 2 14 -2 27 -8 30 -12z m-330 -30 c-3 -5 -12 -10 -18 -10 -7 0 -6 4 3
10 19 12 23 12 15 0z m133 -25 c-3 -3 -9 2 -12 12 -6 14 -5 15 5 6 7 -7 10
-15 7 -18z m-445 0 c-3 -9 -8 -14 -10 -11 -3 3 -2 9 2 15 9 16 15 13 8 -4z
m21 -30 c-4 -8 -13 -15 -20 -15 -12 0 -12 3 -2 15 17 19 29 19 22 0z m-106
-70 c-3 -3 -9 2 -12 12 -6 14 -5 15 5 6 7 -7 10 -15 7 -18z m-18 1 c0 -2 -7
-9 -15 -16 -13 -11 -14 -10 -9 4 5 14 24 23 24 12z m27 -112 c-3 -3 -12 -4
-19 -1 -8 3 -5 6 6 6 11 1 17 -2 13 -5z m110 0 c-3 -3 -12 -4 -19 -1 -8 3 -5
6 6 6 11 1 17 -2 13 -5z m-148 -7 c-2 -1 -12 -9 -22 -16 -15 -12 -17 -12 -11
3 3 9 13 16 22 16 8 0 13 -1 11 -3z m161 -22 c103 -53 127 -161 60 -268 -17
-27 -28 -53 -25 -57 10 -16 -33 -2 -73 25 -24 16 -46 23 -58 19 -13 -4 -15 -3
-6 3 15 11 6 20 -95 88 -40 27 -73 52 -73 55 0 4 13 25 29 47 16 23 28 49 27
59 -2 11 -1 13 1 7 3 -9 14 -6 36 11 49 37 118 41 177 11z m25 7 c-3 -3 -11 0
-18 7 -9 10 -8 11 6 5 10 -3 15 -9 12 -12z m110 -12 c3 -5 1 -10 -4 -10 -6 0
-11 5 -11 10 0 6 2 10 4 10 3 0 8 -4 11 -10z m-395 -34 c0 -3 -4 -8 -10 -11
-5 -3 -10 -1 -10 4 0 6 5 11 10 11 6 0 10 -2 10 -4z m20 -21 c-7 -9 -15 -13
-18 -10 -3 2 1 11 8 20 7 9 15 13 18 10 3 -2 -1 -11 -8 -20z m-30 -40 c0 -5
-5 -3 -11 5 -9 12 -10 10 -5 -9 3 -17 2 -21 -6 -13 -5 5 -7 20 -3 32 6 18 9
20 16 9 5 -8 9 -18 9 -24z m-58 -77 c-7 -7 -12 -21 -13 -32 0 -13 -3 -16 -6
-8 -6 15 17 65 26 57 2 -3 -1 -11 -7 -17z m83 1 c4 -5 18 -15 32 -20 14 -5 23
-12 20 -15 -6 -7 -63 22 -72 36 -3 5 -2 10 4 10 5 0 13 -5 16 -11z m-20 -28
c-6 -5 -25 10 -25 20 0 5 6 4 14 -3 8 -7 12 -15 11 -17z m95 -37 c0 -2 -7 -4
-15 -4 -8 0 -15 4 -15 10 0 5 7 7 15 4 8 -4 15 -8 15 -10z m-200 -34 c0 -11
-4 -20 -9 -20 -5 0 -7 9 -4 20 3 11 7 20 9 20 2 0 4 -9 4 -20z m437 -42 c-3
-8 -6 -5 -6 6 -1 11 2 17 5 13 3 -3 4 -12 1 -19z m-448 -28 c-11 -6 -15 -19
-13 -37 l4 -28 -10 25 c-8 21 -9 18 -6 -17 2 -24 0 -43 -5 -43 -15 0 -10 69 7
102 12 23 18 28 27 19 9 -9 8 -14 -4 -21z m377 -7 c-7 -7 -26 7 -26 19 0 6 6
6 15 -2 9 -7 13 -15 11 -17z m-366 -142 c-8 -17 -15 -20 -24 -12 -7 6 -16 8
-19 4 -15 -14 -6 14 11 35 14 18 19 19 30 8 11 -11 11 -18 2 -35z m46 18 c-14
-17 -26 -40 -25 -52 0 -17 2 -18 7 -7 28 62 62 80 160 84 42 1 70 1 61 -1 -13
-3 -9 -11 17 -37 32 -32 39 -52 35 -101 -2 -17 0 -17 8 -5 18 26 11 -3 -12
-50 -48 -98 -156 -119 -236 -47 -13 12 -21 16 -17 10 5 -8 1 -13 -9 -13 -10 0
-15 -6 -12 -13 3 -7 -2 -22 -10 -32 -13 -19 -14 -18 -7 10 4 17 11 38 15 47 5
10 5 45 0 83 -11 78 -23 101 -14 28 6 -54 -8 -78 -26 -44 -7 13 -8 28 -2 44 6
14 8 27 5 30 -2 2 2 10 11 17 8 7 15 17 15 23 0 13 40 57 53 57 5 0 -3 -14
-17 -31z m268 -45 c3 -8 2 -12 -4 -9 -6 3 -10 10 -10 16 0 14 7 11 14 -7z
m-397 -36 c-3 -7 -5 -2 -5 12 0 14 2 19 5 13 2 -7 2 -19 0 -25z m43 22 c0 -5
-4 -10 -9 -10 -6 0 -13 5 -16 10 -3 6 1 10 9 10 9 0 16 -4 16 -10z m350 -137
c-11 -17 -11 -17 -6 0 3 10 6 24 7 30 0 9 2 9 5 0 3 -7 0 -20 -6 -30z m-294 1
c-4 -9 -9 -15 -11 -12 -3 3 -3 13 1 22 4 9 9 15 11 12 3 -3 3 -13 -1 -22z
m274 -44 c0 -5 -5 -10 -11 -10 -5 0 -7 5 -4 10 3 6 8 10 11 10 2 0 4 -4 4 -10z
m-195 -20 c3 -5 2 -10 -4 -10 -5 0 -13 5 -16 10 -3 6 -2 10 4 10 5 0 13 -4 16
-10z m1200 0 c-27 -12 -43 -12 -25 0 8 5 22 9 30 9 10 0 8 -3 -5 -9z m-1235
-15 c11 -13 10 -14 -4 -9 -9 3 -16 10 -16 15 0 13 6 11 20 -6z m185 5 c3 -6
-1 -7 -9 -4 -18 7 -21 14 -7 14 6 0 13 -4 16 -10z m-72 -7 c-13 -2 -33 -2 -45
0 -13 2 -3 4 22 4 25 0 35 -2 23 -4z m-257 -236 l1 -82 -10 57 c-7 47 -4 108
6 108 1 0 2 -37 3 -83z m875 -74 c-12 -20 -14 -14 -5 12 4 9 9 14 11 11 3 -2
0 -13 -6 -23z m-841 -375 c0 -18 3 -44 6 -58 6 -24 6 -24 -9 -5 -20 27 -27 95
-10 95 8 0 13 -13 13 -32z m610 -100 c0 -9 5 -28 11 -42 9 -19 8 -34 -6 -70
-21 -54 -61 -88 -130 -107 -60 -18 -112 -5 -159 39 -21 20 -27 22 -23 9 4 -11
3 -16 -4 -12 -6 4 -8 14 -4 23 3 8 -6 37 -20 63 -14 27 -25 51 -25 54 0 5 112
59 225 109 33 14 67 30 75 35 12 7 20 -1 37 -37 13 -26 23 -55 23 -64z m1009
60 l-22 -23 19 33 c10 18 20 28 22 23 2 -6 -7 -21 -19 -33z m88 0 c-3 -8 -6
-5 -6 6 -1 11 2 17 5 13 3 -3 4 -12 1 -19z m-1382 -18 c-27 -12 -43 -12 -25 0
8 5 22 9 30 9 10 0 8 -3 -5 -9z m16 -20 c-24 -11 -46 -19 -48 -17 -5 6 60 37
77 37 8 0 -5 -9 -29 -20z m-81 -124 c0 -5 -7 -1 -15 10 -8 10 -14 24 -14 29 0
6 6 1 14 -9 8 -11 15 -24 15 -30z m-30 4 c0 -5 -2 -10 -4 -10 -3 0 -8 5 -11
10 -3 6 -1 10 4 10 6 0 11 -4 11 -10z m-153 -16 c-3 -3 -12 -4 -19 -1 -8 3 -5
6 6 6 11 1 17 -2 13 -5z m573 -84 c8 -5 11 -10 5 -10 -5 0 -17 5 -25 10 -8 5
-10 10 -5 10 6 0 17 -5 25 -10z m-299 -20 c5 0 9 -4 9 -10 0 -14 -13 -12 -36
6 -17 14 -17 15 -1 10 10 -3 23 -6 28 -6z m395 -16 c10 -14 29 -38 42 -52 13
-15 37 -46 53 -69 l29 -42 -22 -15 c-12 -9 -28 -16 -34 -16 -7 0 -32 27 -56
60 -23 33 -45 59 -48 59 -3 1 -16 -8 -29 -18 l-25 -19 42 -56 42 -55 -22 -21
c-12 -11 -25 -20 -30 -20 -4 0 -24 23 -45 50 -20 28 -40 50 -43 50 -3 0 -16
-9 -29 -19 l-25 -19 30 -35 c73 -87 74 -90 42 -121 l-23 -21 -63 79 c-83 104
-87 112 -65 131 48 40 146 116 187 145 25 19 46 37 46 42 0 17 28 7 46 -18z
m-619 -14 c-3 -14 0 -20 11 -20 8 0 13 -3 9 -6 -13 -14 -35 5 -30 25 3 12 8
21 10 21 3 0 3 -9 0 -20z m273 1 c0 -5 -7 -12 -16 -15 -14 -5 -15 -4 -4 9 14
17 20 19 20 6z m-50 -5 c0 -11 -19 -15 -25 -6 -3 5 1 10 9 10 9 0 16 -2 16 -4z
m157 -2 c-3 -3 -12 -4 -19 -1 -8 3 -5 6 6 6 11 1 17 -2 13 -5z m68 -34 c3 -6
-1 -7 -9 -4 -18 7 -21 14 -7 14 6 0 13 -4 16 -10z m-375 -32 c0 -36 -4 -35
-14 5 -4 16 -2 27 4 27 5 0 10 -14 10 -32z m-33 7 c8 -23 0 -24 -19 -3 -15 15
-16 18 -3 18 9 0 18 -7 22 -15z m33 -73 c0 -13 -3 -12 -15 4 -19 25 -19 40 0
24 8 -7 15 -20 15 -28z m1708 -62 c0 -9 -3 -7 -8 5 -5 11 -8 29 -8 40 0 16 2
15 8 -5 4 -14 8 -32 8 -40z m-1318 20 c-8 -5 -19 -10 -25 -10 -5 0 -3 5 5 10
8 5 20 10 25 10 6 0 3 -5 -5 -10z m-330 -15 c0 -8 -2 -15 -4 -15 -2 0 -6 7
-10 15 -3 8 -1 15 4 15 6 0 10 -7 10 -15z m-19 -22 c13 -16 12 -17 -3 -4 -10
7 -18 15 -18 17 0 8 8 3 21 -13z m707 2 c21 -15 21 -20 16 -150 -3 -74 -4
-135 -2 -135 2 0 30 36 62 80 35 47 66 80 76 80 24 0 44 -26 36 -47 -10 -24
-189 -262 -199 -263 -4 0 -19 11 -32 24 -18 18 -24 32 -20 53 2 15 7 75 9 132
5 100 5 104 -11 80 -9 -13 -20 -26 -23 -29 -3 -3 -17 -21 -30 -40 -14 -19 -34
-46 -47 -59 -20 -23 -24 -24 -48 -11 -14 8 -24 20 -23 27 5 21 192 272 203
272 6 1 20 -6 33 -14z m-68 1 c0 -2 -8 -10 -17 -17 -16 -13 -17 -12 -4 4 13
16 21 21 21 13z m-596 -22 c3 -8 2 -12 -4 -9 -6 3 -10 10 -10 16 0 14 7 11 14
-7z m1613 -16 c-3 -7 -5 -2 -5 12 0 14 2 19 5 13 2 -7 2 -19 0 -25z m-1404
-18 c3 -11 1 -18 -4 -14 -5 3 -9 12 -9 20 0 20 7 17 13 -6z m60 -74 c-3 -4 -9
-2 -14 5 -13 22 -11 31 5 17 8 -7 12 -17 9 -22z m1354 -28 c-2 -13 -4 -3 -4
22 0 25 2 35 4 23 2 -13 2 -33 0 -45z m-1540 4 c0 -13 0 -22 -1 -20 0 2 -9 12
-18 23 -16 20 -16 21 0 21 11 0 18 -9 19 -24z m213 -2 c0 -5 -2 -10 -4 -10 -3
0 -8 5 -11 10 -3 6 -1 10 4 10 6 0 11 -4 11 -10z m656 -39 c5 -5 44 -24 87
-41 42 -18 77 -36 77 -41 0 -4 -5 -19 -11 -33 -11 -24 -13 -24 -40 -11 -15 8
-30 15 -32 15 -4 0 -43 -84 -92 -197 -15 -35 -29 -63 -30 -63 -9 0 -66 34 -71
42 -4 6 -3 8 3 5 12 -7 17 2 77 141 l45 103 -30 11 c-32 11 -33 15 -19 52 10
27 20 32 36 17z m-792 -47 c9 -24 7 -27 -9 -10 -17 17 -19 26 -6 26 5 0 12 -7
15 -16z m66 -69 c13 -14 21 -27 18 -30 -2 -3 -17 8 -31 25 -33 36 -20 41 13 5z
m1093 -157 c15 -90 30 -173 33 -185 5 -18 2 -23 -14 -23 -30 0 -52 10 -52 25
0 13 -33 29 -83 41 -21 5 -31 2 -41 -11 -10 -14 -21 -16 -49 -11 l-37 7 36 57
c21 31 66 103 102 160 35 56 68 102 71 102 4 0 20 -73 34 -162z m235 -14 c2
-76 5 -140 6 -141 1 -1 27 2 59 6 31 4 57 4 58 -1 1 -4 1 -20 2 -35 l1 -28
-97 -3 -97 -3 0 155 c0 85 -3 161 -6 169 -4 11 2 17 23 20 15 2 32 3 38 2 5
-1 11 -63 13 -141z m-1157 19 c13 -16 12 -17 -3 -4 -17 13 -22 21 -14 21 2 0
10 -8 17 -17z"/>
<path d="M975 3382 c-16 -11 -36 -26 -43 -35 -16 -19 -6 -41 15 -33 8 3 12 2
8 -3 -3 -5 10 -19 29 -30 39 -24 60 -28 31 -5 l-20 16 20 -4 c13 -2 19 -11 18
-24 -1 -12 9 -25 27 -36 29 -17 29 -16 45 14 19 40 19 63 -1 94 -12 18 -84 65
-98 64 -1 0 -14 -8 -31 -18z m91 -27 c10 -8 15 -14 9 -14 -5 0 -19 6 -29 14
-11 8 -15 15 -10 15 6 0 19 -7 30 -15z m-53 -12 c-7 -2 -19 -2 -25 0 -7 3 -2
5 12 5 14 0 19 -2 13 -5z m82 -67 c-11 -8 -16 -19 -12 -30 4 -9 2 -16 -3 -16
-6 0 -10 8 -10 18 0 20 18 42 34 42 5 0 1 -6 -9 -14z"/>
<path d="M1105 1877 c-49 -22 -91 -42 -93 -43 -9 -6 26 -47 54 -64 50 -32 136
0 150 56 7 27 -3 94 -14 93 -4 0 -47 -19 -97 -42z m-26 -31 c-2 -2 -15 -9 -29
-15 -24 -11 -24 -11 -6 3 16 13 49 24 35 12z m6 -26 c-3 -5 -14 -10 -23 -9
-14 0 -13 2 3 9 27 11 27 11 20 0z m25 -46 c0 -2 -7 -4 -15 -4 -8 0 -15 4 -15
10 0 5 7 7 15 4 8 -4 15 -8 15 -10z m40 6 c-20 -13 -33 -13 -25 0 3 6 14 10
23 10 15 0 15 -2 2 -10z"/>
<path d="M2183 935 c-13 -19 -23 -37 -23 -39 0 -2 14 -6 30 -8 27 -4 30 -2 29
21 0 14 -3 34 -7 43 -6 14 -11 11 -29 -17z"/>
<path d="M1788 4143 c7 -3 16 -2 19 1 4 3 -2 6 -13 5 -11 0 -14 -3 -6 -6z"/>
<path d="M1761 4084 c0 -11 3 -14 6 -6 3 7 2 16 -1 19 -3 4 -6 -2 -5 -13z"/>
<path d="M1835 4070 c3 -5 8 -10 11 -10 2 0 4 5 4 10 0 6 -5 10 -11 10 -5 0
-7 -4 -4 -10z"/>
<path d="M1800 4059 c0 -5 5 -7 10 -4 6 3 10 8 10 11 0 2 -4 4 -10 4 -5 0 -10
-5 -10 -11z"/>
<path d="M1881 3960 c0 -8 4 -24 9 -35 5 -13 9 -14 9 -5 0 8 -4 24 -9 35 -5
13 -9 14 -9 5z"/>
<path d="M1904 3471 c3 -4 18 -11 33 -14 16 -3 37 -8 48 -11 11 -4 2 3 -20 14
-42 21 -70 26 -61 11z"/>
<path d="M2011 3437 c15 -13 69 -34 69 -27 0 4 -14 13 -31 19 -32 11 -46 14
-38 8z"/>
<path d="M2130 3163 c-31 -11 -42 -26 -28 -34 7 -5 19 -9 27 -9 11 0 9 4 -5
15 -17 13 -17 14 -2 15 9 0 20 5 23 10 7 11 7 11 -15 3z"/>
<path d="M2248 3133 c7 -3 16 -2 19 1 4 3 -2 6 -13 5 -11 0 -14 -3 -6 -6z"/>
<path d="M2298 2783 c7 -3 16 -2 19 1 4 3 -2 6 -13 5 -11 0 -14 -3 -6 -6z"/>
<path d="M2233 2773 c9 -2 25 -2 35 0 9 3 1 5 -18 5 -19 0 -27 -2 -17 -5z"/>
<path d="M2140 2759 c0 -5 5 -7 10 -4 6 3 10 8 10 11 0 2 -4 4 -10 4 -5 0 -10
-5 -10 -11z"/>
<path d="M2188 2763 c7 -3 16 -2 19 1 4 3 -2 6 -13 5 -11 0 -14 -3 -6 -6z"/>
<path d="M2500 2143 c8 -3 22 -11 30 -17 13 -10 13 -9 1 7 -7 9 -21 17 -30 16
-13 0 -14 -1 -1 -6z"/>
<path d="M2571 1944 c0 -11 3 -14 6 -6 3 7 2 16 -1 19 -3 4 -6 -2 -5 -13z"/>
<path d="M2601 1894 c0 -11 3 -14 6 -6 3 7 2 16 -1 19 -3 4 -6 -2 -5 -13z"/>
<path d="M2583 1820 c0 -25 2 -35 4 -22 2 12 2 32 0 45 -2 12 -4 2 -4 -23z"/>
<path d="M2591 1653 c1 -78 6 -74 12 10 2 31 0 57 -5 57 -4 0 -8 -30 -7 -67z"/>
<path d="M2771 1393 c-19 -27 -25 -40 -15 -31 18 16 59 78 51 78 -2 0 -18 -21
-36 -47z"/>
<path d="M2700 1265 c-8 -9 -8 -15 -2 -15 12 0 26 19 19 26 -2 2 -10 -2 -17
-11z"/>
<path d="M3048 893 c7 -3 16 -2 19 1 4 3 -2 6 -13 5 -11 0 -14 -3 -6 -6z"/>
<path d="M2998 673 c7 -3 16 -2 19 1 4 3 -2 6 -13 5 -11 0 -14 -3 -6 -6z"/>
<path d="M3000 653 c-8 -2 -21 -7 -29 -9 -8 -2 -12 -6 -10 -9 3 -2 25 2 49 10
25 7 36 14 25 14 -11 -1 -27 -3 -35 -6z"/>
<path d="M2895 620 c-25 -11 1 -11 35 0 20 6 21 8 5 8 -11 0 -29 -3 -40 -8z"/>
<path d="M2523 483 c9 -2 23 -2 30 0 6 3 -1 5 -18 5 -16 0 -22 -2 -12 -5z"/>
</g>
</svg>
